<svg width="136" height="157" viewBox="0 0 136 157" fill="none" xmlns="http://www.w3.org/2000/svg">
<g clip-path="url(#clip0_83_3557)">
<path d="M132.834 110.675C132.667 110.706 132.506 110.731 132.35 110.746C131.756 110.791 131.142 110.706 130.523 110.499C130.523 110.499 130.523 110.498 130.523 110.494C129.984 110.318 129.44 110.057 128.902 109.7C128.519 109.448 128.006 109.479 127.658 109.775C127.482 109.926 127.366 110.132 127.316 110.359C122.281 136.259 102.37 155.884 75.1441 156.93C72.9793 157.015 69.0121 157.045 64.5416 156.889C55.6155 156.583 48.1898 156.045 45.4561 153.279C40.8949 148.653 43.2409 128.455 51.734 128.757C66.4547 129.265 82.4289 134.816 93.9829 122.235C98.0457 117.805 100.362 111.812 102.884 106.376C103.181 105.733 102.758 104.983 102.043 104.918C99.6366 104.687 96.9532 104.189 94.9193 102.927C92.825 101.63 92.4675 98.7234 94.1088 96.8881C100.407 89.8536 107.032 82.789 111.412 74.392C111.412 74.392 111.412 74.392 111.417 74.392C111.417 74.3869 111.417 74.3819 111.422 74.3719C111.427 74.3618 111.432 74.3517 111.437 74.3367C111.442 74.3216 111.447 74.3065 111.457 74.2864C111.467 74.2663 111.473 74.2461 111.483 74.226C112.006 73.2204 112.494 72.2097 112.943 71.1639C113.501 69.8565 113.934 68.5341 114.322 67.2017C115.143 64.9742 115.983 62.5053 116.608 60.1773C116.739 59.6946 116.864 59.2169 116.97 58.7443L117.569 60.1974L119.492 64.8786L132.642 99.2915L134.727 104.757C134.873 105.139 134.988 105.526 135.059 105.924C135.059 105.934 135.059 105.939 135.059 105.949C135.074 106.034 135.089 106.125 135.099 106.21C135.129 106.406 135.149 106.597 135.165 106.789C135.17 106.879 135.18 106.975 135.18 107.065C135.265 108.845 134.711 110.323 132.823 110.67L132.834 110.675Z" fill="white"/>
<path d="M136 104.586C135.99 104.501 135.975 104.41 135.96 104.325C135.97 104.37 135.975 104.415 135.985 104.46C135.995 104.501 135.995 104.546 136 104.586Z" fill="white"/>
<path d="M113.063 52.8412C112.605 76.5491 77.0722 103.425 58.908 114.13L71.494 69.3789C82.5698 59.5236 86.3456 52.7004 86.849 50.5232L71.494 60.5796C73.7092 48.1097 72.9188 35.4386 72.2492 30.6619C70.8395 52.5848 60.4183 81.361 55.3839 93.0113C43.3012 79.3347 36.7565 74.7439 34.9944 74.1557C43.4523 84.212 48.9247 98.125 50.6012 103.822C47.1979 110.615 43.7594 119.243 41.2925 125.911C38.7451 132.789 37.7332 140.151 38.4531 147.451C38.6243 149.171 38.8407 150.398 39.022 151.087C20.1983 144.756 9.8223 133.604 4.52608 122.069C-1.59578 108.745 -1.38433 93.4237 4.45057 79.9733C16.0851 53.1781 36.2732 24.5677 45.8185 12.5604C52.0913 4.54046 59.6682 1.14141 66.8221 0.241362C76.8204 -1.01568 86.8188 2.675 93.872 9.86531C110.068 26.3628 113.572 42.0758 113.169 49.5578C113.109 50.6539 113.083 51.745 113.063 52.8412Z" fill="white"/>
</g>
<defs>
<clipPath id="clip0_83_3557">
<rect width="136" height="157" fill="white"/>
</clipPath>
</defs>
</svg>
