<svg width="271" height="313" viewBox="0 0 271 313" fill="none" xmlns="http://www.w3.org/2000/svg">
<g clip-path="url(#clip0_367_7351)">
<path d="M263.85 220.11C263.52 220.17 263.2 220.22 262.89 220.25C261.71 220.34 260.49 220.17 259.26 219.76C259.26 219.76 259.26 219.757 259.26 219.75C258.19 219.4 257.11 218.88 256.04 218.17C255.28 217.67 254.26 217.73 253.57 218.32C253.22 218.62 252.99 219.03 252.89 219.48C242.89 270.99 203.34 310.02 149.26 312.1C144.96 312.27 137.08 312.33 128.2 312.02C110.47 311.41 95.72 310.34 90.29 304.84C81.23 295.64 85.89 255.47 102.76 256.07C132 257.08 163.73 268.12 186.68 243.1C194.75 234.29 199.35 222.37 204.36 211.56C204.95 210.28 204.11 208.79 202.69 208.66C197.91 208.2 192.58 207.21 188.54 204.7C184.38 202.12 183.67 196.34 186.93 192.69C199.44 178.7 212.6 164.65 221.3 147.95C221.3 147.95 221.3 147.95 221.31 147.95C221.31 147.94 221.31 147.93 221.32 147.91C221.33 147.89 221.34 147.87 221.35 147.84C221.36 147.81 221.37 147.78 221.39 147.74C221.41 147.7 221.42 147.66 221.44 147.62C222.48 145.62 223.45 143.61 224.34 141.53C225.45 138.93 226.31 136.3 227.08 133.65C228.71 129.22 230.38 124.31 231.62 119.68C231.88 118.72 232.13 117.77 232.34 116.83L233.53 119.72L237.35 129.03L263.47 197.47L267.61 208.34C267.9 209.1 268.13 209.87 268.27 210.66C268.27 210.68 268.27 210.69 268.27 210.71C268.3 210.88 268.33 211.06 268.35 211.23C268.41 211.62 268.45 212 268.48 212.38C268.49 212.56 268.51 212.75 268.51 212.93C268.68 216.47 267.58 219.41 263.83 220.1L263.85 220.11Z" fill="black"/>
<path d="M270.14 208C270.12 207.83 270.09 207.65 270.06 207.48C270.08 207.57 270.09 207.66 270.11 207.75C270.13 207.83 270.13 207.92 270.14 208Z" fill="black"/>
<path d="M224.58 105.09C223.67 152.24 153.09 205.69 117.01 226.98L142.01 137.98C164.01 118.38 171.51 104.81 172.51 100.48L142.01 120.48C146.41 95.68 144.84 70.48 143.51 60.98C140.71 104.58 120.01 161.81 110.01 184.98C86.01 157.78 73.01 148.65 69.51 147.48C86.31 167.48 97.18 195.15 100.51 206.48C93.75 219.99 86.92 237.15 82.02 250.41C76.96 264.09 74.95 278.73 76.38 293.25C76.72 296.67 77.15 299.11 77.51 300.48C40.12 287.89 19.51 265.71 8.98999 242.77C-3.17001 216.27 -2.75001 185.8 8.83999 159.05C31.95 105.76 72.05 48.86 91.01 24.98C103.47 9.03001 118.52 2.27001 132.73 0.480005C152.59 -2.01999 172.45 5.32001 186.46 19.62C218.63 52.43 225.59 83.68 224.79 98.56C224.67 100.74 224.62 102.91 224.58 105.09Z" fill="#25DB86"/>
</g>
<defs>
<clipPath id="clip0_367_7351">
<rect width="270.14" height="312.24" fill="white"/>
</clipPath>
</defs>
</svg>
