<svg width="32" height="32" viewBox="0 0 32 32" fill="none" xmlns="http://www.w3.org/2000/svg">
<path d="M12.8662 3.16675H19.1338C20.2485 3.16699 21.1502 4.06646 21.1396 5.1687V6.42651C21.1396 7.53689 20.2441 8.43311 19.1338 8.43335H12.8535C11.743 8.43335 10.8467 7.53704 10.8467 6.42651V5.17358C10.8467 4.1358 11.6429 3.28051 12.6602 3.17749L12.8662 3.16675Z" fill="#F14336" stroke="#F14336"/>
<path d="M23.4863 6.42676C23.4863 6.07316 23.873 5.82137 24.2227 6.00293C25.943 6.91977 27.1131 8.73919 27.1133 10.8262V23.373C27.1133 26.3769 24.6572 28.833 21.6533 28.833H10.3467C7.34284 28.833 4.88672 26.3769 4.88672 23.373V10.8262C4.88689 8.73953 6.05649 6.91991 7.77637 6.00293L7.77734 6.00391C8.12708 5.82204 8.51367 6.07306 8.51367 6.42676C8.51374 8.82285 10.4711 10.7803 12.8672 10.7803H19.1338C21.5297 10.7801 23.4863 8.82271 23.4863 6.42676ZM14.4473 15.2061C13.8653 14.6242 12.9081 14.6242 12.3262 15.2061C11.7443 15.788 11.7443 16.7452 12.3262 17.3271L13.9053 18.9062L12.2734 20.54C11.6915 21.122 11.6915 22.0782 12.2734 22.6602C12.572 22.9587 12.9544 23.0995 13.333 23.0996C13.7118 23.0996 14.0948 22.9589 14.3936 22.6602L16.0264 21.0264L17.6064 22.6064C17.9052 22.9052 18.2882 23.0469 18.667 23.0469C19.0457 23.0468 19.4279 22.9051 19.7266 22.6064L19.7324 22.6006C20.3032 22.0101 20.3117 21.0715 19.7266 20.4863L18.1465 18.9062L19.6602 17.3936C20.242 16.8117 20.242 15.8554 19.6602 15.2734C19.0782 14.6915 18.122 14.6915 17.54 15.2734L16.0264 16.7861L14.4473 15.2061Z" fill="#F14336" stroke="#F14336"/>
</svg>
