<svg width="32" height="32" viewBox="0 0 32 32" fill="none" xmlns="http://www.w3.org/2000/svg">
<path d="M10.7598 3.16675H16.4131C16.8701 3.16679 17.2459 3.54274 17.2461 3.99976V7.85327C17.2461 11.2894 20.0434 14.0866 23.4795 14.0867H27.333C27.7901 14.0867 28.1658 14.4627 28.166 14.9197V21.907C28.166 24.1642 27.3824 25.8837 26.1504 27.0408C24.9134 28.2024 23.1854 28.8337 21.2393 28.8337H10.7598C8.81358 28.8337 7.08559 28.2025 5.84863 27.0408C4.61666 25.8837 3.83306 24.1642 3.83301 21.907V10.0935C3.83301 7.83622 4.61667 6.11683 5.84863 4.95972C7.08559 3.79796 8.81355 3.16675 10.7598 3.16675ZM18.833 19.8904L18.8291 19.8621C18.7901 19.531 18.6524 19.218 18.4062 18.9529L15.7266 16.2732C15.1447 15.6913 14.1884 15.6914 13.6064 16.2732C13.3077 16.5719 13.166 16.955 13.166 17.3337C13.1661 17.7124 13.3078 18.0947 13.6064 18.3933L13.7129 18.4998H9.33301C8.51031 18.4998 7.83319 19.1771 7.83301 19.9998C7.83301 20.8226 8.5102 21.4998 9.33301 21.4998H13.7129L13.6064 21.6062C13.0245 22.1881 13.0245 23.1454 13.6064 23.7273C13.905 24.0257 14.2875 24.1667 14.666 24.1667C15.0447 24.1667 15.4279 24.0259 15.7266 23.7273L18.4199 21.0339C18.4329 21.021 18.4367 21.0162 18.4463 21.0066L18.4629 20.991L18.4775 20.9734C18.6637 20.7499 18.787 20.4916 18.8281 20.2039L18.833 20.1687V19.8904Z" fill="#FBBB00" stroke="#FBBB00"/>
<path d="M20.0732 3.53345C20.0732 3.24993 20.4591 3.04645 20.7129 3.30005C22.6855 5.27267 26.1232 8.75073 28.0449 10.6858L28.0459 10.6868C28.1528 10.7937 28.1671 10.9248 28.1143 11.0442C28.0602 11.1664 27.9414 11.2599 27.7734 11.26C26.2658 11.26 24.5086 11.2596 23.2451 11.2463H23.2402C21.4898 11.2463 20.0734 9.84412 20.0732 8.18677V3.53345Z" fill="#FBBB00" stroke="#FBBB00"/>
</svg>
