<svg width="20" height="20" viewBox="0 0 20 20" fill="none" xmlns="http://www.w3.org/2000/svg">
<path d="M9.25879 2.37329C13.4555 2.37329 16.8738 5.79092 16.874 9.98755C16.874 14.1843 13.4556 17.6028 9.25879 17.6028C5.06216 17.6026 1.64453 14.1842 1.64453 9.98755C1.64471 5.79103 5.06227 2.37347 9.25879 2.37329ZM9.25879 2.56079C5.15878 2.56097 1.83221 5.8962 1.83203 9.98755C1.83203 14.079 5.15867 17.4151 9.25879 17.4153C13.3591 17.4153 16.6865 14.0792 16.6865 9.98755C16.6863 5.89609 13.3589 2.56079 9.25879 2.56079Z" fill="#999999" stroke="#999999"/>
<path d="M15.9883 16.6252C16.0161 16.6253 16.0392 16.6352 16.0547 16.6506L17.6377 18.2346C17.653 18.25 17.663 18.2725 17.6631 18.3C17.6631 18.3279 17.6532 18.351 17.6377 18.3665C17.6261 18.378 17.6156 18.3843 17.6064 18.3879C17.5969 18.3918 17.585 18.3938 17.5713 18.3938C17.5579 18.3938 17.5465 18.3917 17.5371 18.3879C17.5281 18.3843 17.5173 18.3779 17.5059 18.3665L15.9219 16.7834C15.9064 16.768 15.8965 16.7449 15.8965 16.717C15.8965 16.6892 15.9064 16.6661 15.9219 16.6506C15.9374 16.6351 15.9605 16.6252 15.9883 16.6252Z" fill="#999999" stroke="#999999"/>
</svg>
