<svg width="25" height="25" viewBox="0 0 25 25" fill="none" xmlns="http://www.w3.org/2000/svg">
<path d="M12.5 6.70825V10.177" stroke="#999999" stroke-width="2.34375" stroke-miterlimit="10" stroke-linecap="round"/>
<path d="M12.5204 2.08325C8.68703 2.08325 5.58286 5.18742 5.58286 9.02075V11.2083C5.58286 11.9166 5.29119 12.9791 4.92661 13.5833L3.60369 15.7916C2.79119 17.1562 3.35369 18.677 4.85369 19.177C9.83286 20.8333 15.2183 20.8333 20.1974 19.177C21.6037 18.7083 22.2079 17.0624 21.4474 15.7916L20.1245 13.5833C19.7599 12.9791 19.4683 11.9062 19.4683 11.2083V9.02075C19.4579 5.20825 16.3329 2.08325 12.5204 2.08325Z" stroke="#999999" stroke-width="2.34375" stroke-miterlimit="10" stroke-linecap="round"/>
<path d="M15.9688 19.604C15.9688 21.5103 14.4063 23.0728 12.5 23.0728C11.5521 23.0728 10.6771 22.6769 10.0521 22.0519C9.42708 21.4269 9.03125 20.5519 9.03125 19.604" stroke="#999999" stroke-width="2.34375" stroke-miterlimit="10"/>
</svg>
